<?xml version="1.0" encoding="UTF-8" standalone="no"?>
<svg width="211px" height="30px" viewBox="0 0 211 30" version="1.1" xmlns="http://www.w3.org/2000/svg" xmlns:xlink="http://www.w3.org/1999/xlink" xmlns:sketch="http://www.bohemiancoding.com/sketch/ns">
    <!-- Generator: Sketch 3.0.3 (7891) - http://www.bohemiancoding.com/sketch -->
    <title>logo</title>
    <desc>Created with Sketch.</desc>
    <defs></defs>
    <g id="Page-1" stroke="none" stroke-width="1" fill="none" fill-rule="evenodd" sketch:type="MSPage">
        <g id="Artboard-1" sketch:type="MSArtboardGroup" transform="translate(-14.000000, -11.000000)" fill="#2B3033">
            <g id="logo" sketch:type="MSLayerGroup" transform="translate(14.000000, 12.000000)">
                <path d="M45.797111,13.3728281 C45.797111,8.81162813 49.2602538,5.11422813 53.5310702,5.11422813 C57.8039681,5.11422813 61.2664171,8.81162813 61.2664171,13.3728281 C61.2664171,17.9326281 57.8039681,21.6314281 53.5310702,21.6314281 C49.2602538,21.6314281 45.797111,17.9326281 45.797111,13.3728281 M50.3544987,13.3728281 C50.3544987,11.0775281 51.7769477,9.21832813 53.5310702,9.21832813 C55.2865804,9.21832813 56.7090293,11.0775281 56.7090293,13.3728281 C56.7090293,15.6674281 55.2865804,17.5280281 53.5310702,17.5280281 C51.7769477,17.5280281 50.3544987,15.6674281 50.3544987,13.3728281" id="Fill-1" sketch:type="MSShapeGroup"></path>
                <path d="M83.6314783,13.3728281 C83.6314783,8.81162813 87.0946212,5.11422813 91.3661314,5.11422813 C95.6376416,5.11422813 99.1007844,8.81162813 99.1007844,13.3728281 C99.1007844,17.9326281 95.6376416,21.6314281 91.3661314,21.6314281 C87.0946212,21.6314281 83.6314783,17.9326281 83.6314783,13.3728281 M88.1888661,13.3728281 C88.1888661,11.0775281 89.6120089,9.21832813 91.3661314,9.21832813 C93.1202538,9.21832813 94.5427028,11.0775281 94.5427028,13.3728281 C94.5427028,15.6674281 93.1202538,17.5280281 91.3661314,17.5280281 C89.6120089,17.5280281 88.1888661,15.6674281 88.1888661,13.3728281" id="Fill-2" sketch:type="MSShapeGroup"></path>
                <path d="M0.117764031,1.04932813 L0.117764031,21.2135281 L4.58772321,21.2135281 L4.58772321,8.89142813 L14.0653967,21.3178281 L17.6541314,21.3178281 L17.6541314,1.12702813 L13.1605804,1.12702813 L13.1605804,12.7729281 L3.91396811,1.02342813 L0.117764031,1.04932813" id="Fill-3" sketch:type="MSShapeGroup"></path>
                <path d="M99.5642946,5.46492812 L98.7982538,5.46492812 L98.7982538,7.37032812 L98.5144579,7.37032812 L98.5144579,5.46492812 L97.749111,5.46492812 L97.749111,5.21012812 L99.5642946,5.21012812 L99.5642946,5.46492812" id="Fill-4" sketch:type="MSShapeGroup"></path>
                <path d="M101.757642,7.36962812 L101.472458,7.36962812 L101.472458,5.50832812 L100.877111,6.77462812 L100.708499,6.77462812 L100.116621,5.50832812 L100.116621,7.36962812 L99.8515599,7.36962812 L99.8515599,5.21012812 L100.238744,5.21012812 L100.809805,6.41202812 L101.362131,5.21012812 L101.757642,5.21012812 L101.757642,7.36962812" id="Fill-5" sketch:type="MSShapeGroup"></path>
                <path d="M17.917111,13.3728281 C17.917111,8.81162813 21.3802538,5.11422813 25.651764,5.11422813 C29.9239681,5.11422813 33.3857232,8.81162813 33.3857232,13.3728281 C33.3857232,17.9326281 29.9239681,21.6314281 25.651764,21.6314281 C21.3802538,21.6314281 17.917111,17.9326281 17.917111,13.3728281 M22.4744987,13.3728281 C22.4744987,11.0775281 23.8969477,9.21832813 25.651764,9.21832813 C27.4065804,9.21832813 28.8290293,11.0775281 28.8290293,13.3728281 C28.8290293,15.6674281 27.4065804,17.5280281 25.651764,17.5280281 C23.8969477,17.5280281 22.4744987,15.6674281 22.4744987,13.3728281" id="Fill-6" sketch:type="MSShapeGroup"></path>
                <path d="M35.8531518,5.19612813 L30.8128253,5.19612813 L38.0492742,21.2926281 L41.1793559,21.2926281 L48.2992334,5.19612813 L43.4011518,5.19612813 L39.6986212,14.3304281 L35.8531518,5.19612813" id="Fill-7" sketch:type="MSShapeGroup"></path>
                <path d="M60.9465395,17.0793281 C62.3703763,17.2613281 63.5471926,17.3124281 64.5054375,17.2928281 C65.3103355,17.2858281 67.1053967,17.2130281 67.0686212,16.4591281 C67.063764,16.3849281 67.0547436,15.9677281 66.0867844,15.5981281 C64.1439273,14.8673281 62.7020497,13.6507281 62.7020497,13.6507281 C61.7972334,12.7918281 61.2358865,11.6158281 61.2358865,10.3194281 C61.2358865,8.44202813 62.3898048,6.83062813 64.0898048,6.05432813 C64.0898048,6.05432813 66.0416824,4.99732813 71.0084579,5.36902813 L71.3408253,9.55152813 C69.9093559,9.44512813 68.6867436,9.43602813 67.7305804,9.50672813 C66.9263763,9.55572813 65.7169477,9.73702813 65.7134783,10.1871281 C65.7127844,10.2613281 65.6565804,10.4853281 66.6717232,10.9627281 C66.6717232,10.9627281 69.5200906,12.1555281 70.3895191,13.2531281 C71.1493151,14.0896281 71.6058865,15.1697281 71.6058865,16.3485281 C71.6058865,18.1125281 70.6011518,19.6462281 69.0711518,20.4813281 C69.0711518,20.4813281 66.2054375,22.1886281 61.0166212,21.2506281 L60.9465395,17.0793281" id="Fill-8" sketch:type="MSShapeGroup"></path>
                <path d="M83.7036416,21.0595281 C75.6858865,21.7847281 71.5476008,17.5273281 71.5476008,13.0984281 C71.5476008,8.67022812 75.4270702,4.70192812 83.6169069,5.13732812 L83.8535191,9.28342812 C77.6544171,8.84172812 76.0702946,11.0327281 76.0702946,13.1390281 C76.0702946,15.2439281 77.8271926,17.3495281 84.1123355,16.8504281 L83.7036416,21.0595281" id="Fill-9" sketch:type="MSShapeGroup"></path>
                <path d="M124.72,19.14 C123.55,19.71 121.87,20.07 120.16,20.07 C114.73,20.07 111.61,16.53 111.61,11.04 C111.61,5.22 114.94,1.68 120.4,1.68 C122.11,1.68 123.58,2.04 124.6,2.55 L125.05,1.35 C124.45,1.05 122.95,0.48 120.37,0.48 C113.98,0.48 110.11,5.01 110.11,11.01 C110.11,18.18 114.79,21.3 119.68,21.3 C122.17,21.3 124.12,20.79 125.14,20.28 L124.72,19.14 Z M128.53,0.78 L128.53,21 L129.97,21 L129.97,0.78 L128.53,0.78 Z M142.42,21.33 C147.07,21.33 151.45,17.82 151.45,10.68 C151.45,4.44 147.73,0.45 142.63,0.45 C137.56,0.45 133.54,4.47 133.54,11.1 C133.54,17.4 137.41,21.33 142.39,21.33 L142.42,21.33 Z M142.45,20.13 C137.68,20.13 135.04,15.6 135.04,11.04 C135.04,6.33 137.41,1.65 142.54,1.65 C147.61,1.65 149.95,6.51 149.95,10.77 C149.95,15.78 147.28,20.13 142.48,20.13 L142.45,20.13 Z M161.56,21 C162.37,21.03 163.54,21.15 165.07,21.15 C167.95,21.15 170.14,20.58 171.49,19.23 C172.39,18.27 172.99,17.01 172.99,15.36 C172.99,12.06 170.41,10.59 168.7,10.2 L168.7,10.11 C170.71,9.42 172.18,7.68 172.18,5.61 C172.18,4.2 171.76,3.12 170.92,2.31 C169.81,1.17 168.16,0.63 165.64,0.63 C164.14,0.63 162.7,0.81 161.56,1.08 L161.56,21 Z M163,2.04 C163.45,1.92 164.23,1.83 165.55,1.83 C168.55,1.83 170.71,2.85 170.71,5.7 C170.71,7.92 168.88,9.66 165.94,9.66 L163,9.66 L163,2.04 Z M163,10.83 L165.55,10.83 C168.76,10.83 171.49,12.21 171.49,15.39 C171.49,18.84 168.58,19.95 165.49,19.95 C164.41,19.95 163.6,19.92 163,19.8 L163,10.83 Z M176.71,21 L178.15,21 L178.15,-0.33 L176.71,-0.33 L176.71,21 Z M188.5,21.33 C191.68,21.33 195.37,19.02 195.37,13.68 C195.37,9.27 192.67,6.27 188.68,6.27 C185.11,6.27 181.87,9 181.87,13.92 C181.87,18.42 184.75,21.33 188.47,21.33 L188.5,21.33 Z M188.53,20.13 C185.59,20.13 183.31,17.43 183.31,13.83 C183.31,10.74 184.96,7.47 188.65,7.47 C192.46,7.47 193.93,11.1 193.93,13.74 C193.93,17.43 191.56,20.13 188.56,20.13 L188.53,20.13 Z M210.52,10.32 C210.52,8.82 210.55,7.68 210.64,6.6 L209.32,6.6 L209.23,9.03 L209.17,9.03 C208.57,7.83 207.16,6.27 204.31,6.27 C201.13,6.27 197.83,8.91 197.83,13.92 C197.83,17.85 200.38,21 204.01,21 C206.59,21 208.27,19.68 209.02,18.21 L209.08,18.21 L209.08,20.25 C209.08,24.51 206.89,26.07 203.86,26.07 C202,26.07 200.59,25.53 199.57,24.87 L199.06,26.01 C200.17,26.85 202,27.27 203.65,27.27 C205.27,27.27 207.22,26.82 208.54,25.56 C209.74,24.42 210.52,22.59 210.52,18.9 L210.52,10.32 Z M209.08,15.03 C209.08,15.54 208.99,16.08 208.84,16.56 C208.09,18.6 206.29,19.8 204.37,19.8 C200.98,19.8 199.27,17.01 199.27,13.77 C199.27,9.96 201.37,7.47 204.43,7.47 C206.8,7.47 208.3,9.03 208.9,10.74 C209.05,11.16 209.08,11.61 209.08,12.15 L209.08,15.03 Z" id="CIO-Blog-" sketch:type="MSShapeGroup"></path>
            </g>
        </g>
    </g>
</svg>